Coordinates
version=1
nRows=16
nColumns=33
inDegrees=yes

Units are S.I. units (second, meters, Newtons, ...)
Angles are in degrees.

endheader
time	ground_thorax_rot_x	ground_thorax_rot_y	ground_thorax_rot_z	ground_thorax_tx	ground_thorax_ty	ground_thorax_tz	clav_prot_r	clav_elev_r	scapula_abduction_r	scapula_elevation_r	scapula_upward_rot_r	scapula_winging_r	shoulder_elv_r	plane_of_elev_r	axial_rot_r	elbow_flexion_r	pro_sup_r	wrist_flex_r	wrist_dev_r	clav_prot_l	clav_elev_l	scapula_abduction_l	scapula_elevation_l	scapula_upward_rot_l	scapula_winging_l	shoulder_elv_l	plane_of_elev_l	axial_rot_l	elbow_flexion_l	pro_sup_l	wrist_flex_l	wrist_dev_l	
4.7800	-38.135523	-17.239235	20.292551	-67.504624	813.353144	2.557408	9.811166	-38.959213	45.000000	-45.000000	45.000000	-3620.615268	-4421.229124	-90.000000	-30.843767	2517.763338	-122.244325	17.130789	15.444057	18.400115	39.888803	-42.073477	-44.987526	-44.999967	3318.312919	-2812.232691	23.089374	-32.043818	1087.013582	12.814332	12.290433	-19.399903	
4.7900	-38.232874	-17.459463	20.218604	-65.249754	810.559130	3.077303	9.763441	-38.915647	45.000000	-45.000000	45.000000	-3621.100535	-4421.706222	-90.000000	-30.342845	2517.473252	-121.762163	17.058693	15.213095	18.363063	39.880076	-42.042010	-44.977787	-44.999941	3317.946646	-2812.354798	23.113014	-31.864091	1086.823432	13.668725	12.106974	-19.254854	
4.8000	-38.328109	-17.669471	20.126858	-63.121303	807.884379	3.573791	9.723768	-38.875384	45.000000	-45.000000	44.999999	-3621.568771	-4422.187060	-90.000000	-29.838593	2517.171286	-121.253088	16.993068	14.987977	18.295939	39.856189	-42.014830	-44.959842	-44.999894	3317.601512	-2812.463237	23.142072	-31.661875	1086.647640	14.547634	11.925461	-19.120268	
4.8100	-38.414997	-17.856269	20.008954	-61.250740	805.462013	4.021260	9.676363	-38.827695	45.000000	-45.000000	44.999999	-3621.964676	-4422.547939	-90.000000	-29.454945	2516.937688	-120.693100	16.904493	14.753089	18.278413	39.833831	-42.018040	-44.929093	-44.999810	3317.275656	-2812.552565	23.156973	-31.374074	1086.463238	15.498756	11.761084	-19.038658	
4.8200	-38.496139	-18.010303	19.855884	-59.672680	803.309014	4.413166	9.623701	-38.775639	45.000000	-45.000000	44.999998	-3622.294723	-4422.828550	-90.000000	-29.152480	2516.742421	-120.072349	16.818900	14.527203	18.291673	39.806449	-42.066357	-44.870115	-44.999659	3317.010190	-2812.631571	23.173578	-31.024938	1086.280639	16.497668	11.617411	-18.996196	
4.8300	-38.569966	-18.128523	19.665768	-58.437964	801.455380	4.740546	9.571354	-38.722091	45.000000	-45.000000	44.999997	-3622.556829	-4423.032391	-90.000000	-28.927893	2516.582190	-119.374400	16.738812	14.313104	18.324630	39.765959	-42.149329	-44.780976	-44.999391	3316.811966	-2812.689760	23.199607	-30.608008	1086.107411	17.522164	11.493673	-18.988349	
4.8400	-38.640824	-18.205125	19.430932	-57.568256	799.894178	5.001498	9.514475	-38.668830	44.999999	-45.000000	44.999995	-3622.757387	-4423.176757	-90.000000	-28.763730	2516.446617	-118.583036	16.691871	14.131373	18.394045	39.733916	-42.276071	-44.664042	-44.998906	3316.709462	-2812.754623	23.253604	-30.138226	1085.946712	18.544129	11.396218	-19.004089	
4.8500	-38.708420	-18.251776	19.162715	-57.069135	798.599530	5.199313	9.466838	-38.622890	44.999999	-45.000000	44.999990	-3622.913424	-4423.287038	-90.000000	-28.634422	2516.316234	-117.685440	16.668020	13.971751	18.460070	39.700888	-42.400478	-44.539916	-44.998050	3316.668362	-2812.802068	23.335011	-29.618969	1085.810547	19.516839	11.316755	-19.029674	
4.8600	-38.778217	-18.267962	18.857921	-56.940929	797.540731	5.340488	9.419955	-38.582784	44.999998	-45.000000	44.999983	-3623.029582	-4423.364672	-90.000000	-28.538001	2516.191164	-116.669835	16.687124	13.847207	18.544696	39.702576	-42.531990	-44.420799	-44.996481	3316.696359	-2812.860671	23.443416	-29.083883	1085.696442	20.415588	11.265201	-19.063020	
4.8700	-38.848176	-18.263999	18.528636	-57.179568	796.686098	5.434068	9.386240	-38.553980	44.999996	-45.000000	44.999969	-3623.120929	-4423.417829	-90.000000	-28.465793	2516.056667	-115.529952	16.726837	13.736743	18.616999	39.731730	-42.625330	-44.330800	-44.993769	3316.742230	-2812.906137	23.569634	-28.551583	1085.606821	21.204852	11.227874	-19.096391	
4.8800	-38.924857	-18.244536	18.173540	-57.777933	796.003922	5.490062	9.361508	-38.534845	44.999992	-45.000000	44.999945	-3623.192108	-4423.454434	-90.000000	-28.409280	2515.915925	-114.265391	16.785183	13.640167	18.684844	39.790628	-42.684297	-44.283218	-44.988635	3316.800797	-2812.956697	23.705685	-28.068848	1085.533020	21.859013	11.201810	-19.125124	
4.8900	-39.006211	-18.215335	17.802658	-58.726658	795.465264	5.517622	9.354481	-38.527957	44.999986	-45.000000	44.999901	-3623.251126	-4423.481011	-90.000000	-28.361569	2515.762574	-112.890476	16.831398	13.535002	18.723754	39.854652	-42.686750	-44.279361	-44.980211	3316.844792	-2812.984316	23.836051	-27.674283	1085.474299	22.339349	11.167941	-19.141489	
4.9000	-39.098200	-18.171292	17.406892	-60.015394	795.043255	5.523902	9.355781	-38.528985	44.999976	-45.000000	44.999822	-3623.293745	-4423.501221	-90.000000	-28.318650	2515.611041	-111.430422	16.871384	13.432138	18.755504	39.930423	-42.666361	-44.307726	-44.962966	3316.900911	-2813.011646	23.950065	-27.415052	1085.422421	22.624558	11.127696	-19.144569	
4.9100	-39.200754	-18.106665	16.986292	-61.633116	794.714833	5.513148	9.371352	-38.540258	44.999957	-45.000000	44.999681	-3623.327815	-4423.509301	-90.000000	-28.285925	2515.459308	-109.915743	16.893778	13.324058	18.793154	40.014789	-42.626258	-44.368756	-44.938092	3316.951492	-2813.032482	24.037816	-27.263840	1085.376418	22.687962	11.076765	-19.132250	
4.9200	-39.315952	-18.017297	16.529469	-63.569174	794.460018	5.486585	9.391814	-38.553303	44.999922	-45.000000	44.999429	-3623.346670	-4423.510683	-90.000000	-28.258011	2515.320596	-108.397109	16.911634	13.221408	18.822952	40.106987	-42.579707	-44.444237	-44.876738	3317.017445	-2813.057011	24.088683	-27.245138	1085.334459	22.543923	11.038441	-19.115076	
4.9300	-39.446261	-17.895026	16.038174	-65.812860	794.262905	5.442695	9.428246	-38.569682	44.999861	-45.000000	44.998978	-3623.361524	-4423.492246	-90.000000	-28.247598	2515.187991	-106.899026	16.926530	13.119605	18.874364	40.210186	-42.539525	-44.543247	-44.813720	3317.062542	-2813.064629	24.098265	-27.224423	1085.299582	22.179154	11.033873	-19.099411	
